# xmcd
#
# Track frame offsets:
#	150
#	101806
#	118811
#
# Disc length: 1896 seconds
#
# Revision: 1
# Processed by: cddbd v1.5.2PL0 Copyright (c) Steve Scherf et al.
# Submitted via: audiograbber 1.83.01
#
DISCID=24076603
DTITLE=Grateful Dead - 69-04-20 Atwood Hall, Worcester MA
DYEAR=1900
DGENRE=
TTITLE0=Turn On Your Lovelight
TTITLE1=Dupree's Diamond Blues
TTITLE2=Mountains Of The Moon
EXTD=
EXTT0=
EXTT1=
EXTT2=
PLAYORDER=
